%FSLAX45Y45*%
G04 Gerber Fmt 4.5, Leading zero omitted, Abs format (unit mm)*
G04 Created by KiCad (PCBNEW (6.0.0)) date 2023-04-27 21:53:18*
%MOMM*%
%LPD*%
G01*
G04 APERTURE LIST*
%TA.AperFunction,Profile*%
%ADD10C,0.100000*%
%TD*%
%ADD11C,0.200000*%
G04 APERTURE END LIST*
D10*
X22075000Y-10425000D02*
X17350000Y-10425000D01*
X17350000Y-10425000D02*
X17350000Y-7325000D01*
X17350000Y-7325000D02*
X22075000Y-7325000D01*
X22075000Y-7325000D02*
X22075000Y-10425000D01*
D11*
X17602619Y-10740476D02*
X17602619Y-10540476D01*
X17650238Y-10540476D01*
X17678810Y-10550000D01*
X17697857Y-10569048D01*
X17707381Y-10588095D01*
X17716905Y-10626190D01*
X17716905Y-10654762D01*
X17707381Y-10692857D01*
X17697857Y-10711905D01*
X17678810Y-10730952D01*
X17650238Y-10740476D01*
X17602619Y-10740476D01*
X17802619Y-10740476D02*
X17802619Y-10607143D01*
X17802619Y-10645238D02*
X17812143Y-10626190D01*
X17821667Y-10616667D01*
X17840714Y-10607143D01*
X17859762Y-10607143D01*
X17926429Y-10740476D02*
X17926429Y-10607143D01*
X17926429Y-10540476D02*
X17916905Y-10550000D01*
X17926429Y-10559524D01*
X17935952Y-10550000D01*
X17926429Y-10540476D01*
X17926429Y-10559524D01*
X18050238Y-10740476D02*
X18031190Y-10730952D01*
X18021667Y-10711905D01*
X18021667Y-10540476D01*
X18155000Y-10740476D02*
X18135952Y-10730952D01*
X18126429Y-10711905D01*
X18126429Y-10540476D01*
X18383571Y-10740476D02*
X18383571Y-10540476D01*
X18450238Y-10683333D01*
X18516905Y-10540476D01*
X18516905Y-10740476D01*
X18697857Y-10740476D02*
X18697857Y-10635714D01*
X18688333Y-10616667D01*
X18669286Y-10607143D01*
X18631190Y-10607143D01*
X18612143Y-10616667D01*
X18697857Y-10730952D02*
X18678810Y-10740476D01*
X18631190Y-10740476D01*
X18612143Y-10730952D01*
X18602619Y-10711905D01*
X18602619Y-10692857D01*
X18612143Y-10673810D01*
X18631190Y-10664286D01*
X18678810Y-10664286D01*
X18697857Y-10654762D01*
X18793095Y-10607143D02*
X18793095Y-10807143D01*
X18793095Y-10616667D02*
X18812143Y-10607143D01*
X18850238Y-10607143D01*
X18869286Y-10616667D01*
X18878810Y-10626190D01*
X18888333Y-10645238D01*
X18888333Y-10702381D01*
X18878810Y-10721429D01*
X18869286Y-10730952D01*
X18850238Y-10740476D01*
X18812143Y-10740476D01*
X18793095Y-10730952D01*
X18974048Y-10721429D02*
X18983571Y-10730952D01*
X18974048Y-10740476D01*
X18964524Y-10730952D01*
X18974048Y-10721429D01*
X18974048Y-10740476D01*
X18974048Y-10616667D02*
X18983571Y-10626190D01*
X18974048Y-10635714D01*
X18964524Y-10626190D01*
X18974048Y-10616667D01*
X18974048Y-10635714D01*
M02*
