%TF.GenerationSoftware,KiCad,Pcbnew,(6.0.0)*%
%TF.CreationDate,2023-04-27T21:52:48-07:00*%
%TF.ProjectId,dumpster_fire_shelf_led_controller,64756d70-7374-4657-925f-666972655f73,rev?*%
%TF.SameCoordinates,Original*%
%TF.FileFunction,Legend,Top*%
%TF.FilePolarity,Positive*%
%FSLAX46Y46*%
G04 Gerber Fmt 4.6, Leading zero omitted, Abs format (unit mm)*
G04 Created by KiCad (PCBNEW (6.0.0)) date 2023-04-27 21:52:48*
%MOMM*%
%LPD*%
G01*
G04 APERTURE LIST*
G04 Aperture macros list*
%AMRoundRect*
0 Rectangle with rounded corners*
0 $1 Rounding radius*
0 $2 $3 $4 $5 $6 $7 $8 $9 X,Y pos of 4 corners*
0 Add a 4 corners polygon primitive as box body*
4,1,4,$2,$3,$4,$5,$6,$7,$8,$9,$2,$3,0*
0 Add four circle primitives for the rounded corners*
1,1,$1+$1,$2,$3*
1,1,$1+$1,$4,$5*
1,1,$1+$1,$6,$7*
1,1,$1+$1,$8,$9*
0 Add four rect primitives between the rounded corners*
20,1,$1+$1,$2,$3,$4,$5,0*
20,1,$1+$1,$4,$5,$6,$7,0*
20,1,$1+$1,$6,$7,$8,$9,0*
20,1,$1+$1,$8,$9,$2,$3,0*%
G04 Aperture macros list end*
%ADD10C,0.150000*%
%ADD11C,0.120000*%
%ADD12R,5.700000X0.600000*%
%ADD13RoundRect,0.250000X0.537500X0.425000X-0.537500X0.425000X-0.537500X-0.425000X0.537500X-0.425000X0*%
%ADD14R,1.600000X1.400000*%
%ADD15RoundRect,0.250000X-0.537500X-0.425000X0.537500X-0.425000X0.537500X0.425000X-0.537500X0.425000X0*%
%ADD16RoundRect,0.250000X0.450000X-0.350000X0.450000X0.350000X-0.450000X0.350000X-0.450000X-0.350000X0*%
%ADD17RoundRect,0.250000X-0.412500X-0.650000X0.412500X-0.650000X0.412500X0.650000X-0.412500X0.650000X0*%
%ADD18R,6.000000X2.000000*%
%ADD19R,3.500000X2.000000*%
%ADD20R,2.500000X1.000000*%
%ADD21RoundRect,0.250000X-0.450000X0.350000X-0.450000X-0.350000X0.450000X-0.350000X0.450000X0.350000X0*%
%ADD22R,1.100000X2.500000*%
%ADD23R,2.500000X1.100000*%
%ADD24R,1.400000X0.400000*%
%ADD25R,1.900000X1.750000*%
%ADD26R,1.450000X1.150000*%
%ADD27O,1.900000X1.050000*%
%ADD28R,2.000000X1.500000*%
%ADD29R,2.000000X3.800000*%
G04 APERTURE END LIST*
D10*
%TO.C,C2*%
X181620833Y-97357142D02*
X181573214Y-97404761D01*
X181430357Y-97452380D01*
X181335119Y-97452380D01*
X181192261Y-97404761D01*
X181097023Y-97309523D01*
X181049404Y-97214285D01*
X181001785Y-97023809D01*
X181001785Y-96880952D01*
X181049404Y-96690476D01*
X181097023Y-96595238D01*
X181192261Y-96500000D01*
X181335119Y-96452380D01*
X181430357Y-96452380D01*
X181573214Y-96500000D01*
X181620833Y-96547619D01*
X182001785Y-96547619D02*
X182049404Y-96500000D01*
X182144642Y-96452380D01*
X182382738Y-96452380D01*
X182477976Y-96500000D01*
X182525595Y-96547619D01*
X182573214Y-96642857D01*
X182573214Y-96738095D01*
X182525595Y-96880952D01*
X181954166Y-97452380D01*
X182573214Y-97452380D01*
%TO.C,FLASH1*%
X203928571Y-103166666D02*
X203928571Y-103500000D01*
X204452380Y-103500000D02*
X203452380Y-103500000D01*
X203452380Y-103023809D01*
X204452380Y-102166666D02*
X204452380Y-102642857D01*
X203452380Y-102642857D01*
X204166666Y-101880952D02*
X204166666Y-101404761D01*
X204452380Y-101976190D02*
X203452380Y-101642857D01*
X204452380Y-101309523D01*
X204404761Y-101023809D02*
X204452380Y-100880952D01*
X204452380Y-100642857D01*
X204404761Y-100547619D01*
X204357142Y-100500000D01*
X204261904Y-100452380D01*
X204166666Y-100452380D01*
X204071428Y-100500000D01*
X204023809Y-100547619D01*
X203976190Y-100642857D01*
X203928571Y-100833333D01*
X203880952Y-100928571D01*
X203833333Y-100976190D01*
X203738095Y-101023809D01*
X203642857Y-101023809D01*
X203547619Y-100976190D01*
X203500000Y-100928571D01*
X203452380Y-100833333D01*
X203452380Y-100595238D01*
X203500000Y-100452380D01*
X204452380Y-100023809D02*
X203452380Y-100023809D01*
X203928571Y-100023809D02*
X203928571Y-99452380D01*
X204452380Y-99452380D02*
X203452380Y-99452380D01*
X204452380Y-98452380D02*
X204452380Y-99023809D01*
X204452380Y-98738095D02*
X203452380Y-98738095D01*
X203595238Y-98833333D01*
X203690476Y-98928571D01*
X203738095Y-99023809D01*
%TO.C,C3*%
X200958333Y-89607142D02*
X200910714Y-89654761D01*
X200767857Y-89702380D01*
X200672619Y-89702380D01*
X200529761Y-89654761D01*
X200434523Y-89559523D01*
X200386904Y-89464285D01*
X200339285Y-89273809D01*
X200339285Y-89130952D01*
X200386904Y-88940476D01*
X200434523Y-88845238D01*
X200529761Y-88750000D01*
X200672619Y-88702380D01*
X200767857Y-88702380D01*
X200910714Y-88750000D01*
X200958333Y-88797619D01*
X201291666Y-88702380D02*
X201910714Y-88702380D01*
X201577380Y-89083333D01*
X201720238Y-89083333D01*
X201815476Y-89130952D01*
X201863095Y-89178571D01*
X201910714Y-89273809D01*
X201910714Y-89511904D01*
X201863095Y-89607142D01*
X201815476Y-89654761D01*
X201720238Y-89702380D01*
X201434523Y-89702380D01*
X201339285Y-89654761D01*
X201291666Y-89607142D01*
%TO.C,R1*%
X190452380Y-94666666D02*
X189976190Y-95000000D01*
X190452380Y-95238095D02*
X189452380Y-95238095D01*
X189452380Y-94857142D01*
X189500000Y-94761904D01*
X189547619Y-94714285D01*
X189642857Y-94666666D01*
X189785714Y-94666666D01*
X189880952Y-94714285D01*
X189928571Y-94761904D01*
X189976190Y-94857142D01*
X189976190Y-95238095D01*
X190452380Y-93714285D02*
X190452380Y-94285714D01*
X190452380Y-94000000D02*
X189452380Y-94000000D01*
X189595238Y-94095238D01*
X189690476Y-94190476D01*
X189738095Y-94285714D01*
%TO.C,C4*%
X181458333Y-96107142D02*
X181410714Y-96154761D01*
X181267857Y-96202380D01*
X181172619Y-96202380D01*
X181029761Y-96154761D01*
X180934523Y-96059523D01*
X180886904Y-95964285D01*
X180839285Y-95773809D01*
X180839285Y-95630952D01*
X180886904Y-95440476D01*
X180934523Y-95345238D01*
X181029761Y-95250000D01*
X181172619Y-95202380D01*
X181267857Y-95202380D01*
X181410714Y-95250000D01*
X181458333Y-95297619D01*
X182315476Y-95535714D02*
X182315476Y-96202380D01*
X182077380Y-95154761D02*
X181839285Y-95869047D01*
X182458333Y-95869047D01*
%TO.C,J3*%
X204952380Y-97333333D02*
X205666666Y-97333333D01*
X205809523Y-97380952D01*
X205904761Y-97476190D01*
X205952380Y-97619047D01*
X205952380Y-97714285D01*
X204952380Y-96952380D02*
X204952380Y-96333333D01*
X205333333Y-96666666D01*
X205333333Y-96523809D01*
X205380952Y-96428571D01*
X205428571Y-96380952D01*
X205523809Y-96333333D01*
X205761904Y-96333333D01*
X205857142Y-96380952D01*
X205904761Y-96428571D01*
X205952380Y-96523809D01*
X205952380Y-96809523D01*
X205904761Y-96904761D01*
X205857142Y-96952380D01*
%TO.C,C1*%
X181633333Y-100957142D02*
X181585714Y-101004761D01*
X181442857Y-101052380D01*
X181347619Y-101052380D01*
X181204761Y-101004761D01*
X181109523Y-100909523D01*
X181061904Y-100814285D01*
X181014285Y-100623809D01*
X181014285Y-100480952D01*
X181061904Y-100290476D01*
X181109523Y-100195238D01*
X181204761Y-100100000D01*
X181347619Y-100052380D01*
X181442857Y-100052380D01*
X181585714Y-100100000D01*
X181633333Y-100147619D01*
X182585714Y-101052380D02*
X182014285Y-101052380D01*
X182300000Y-101052380D02*
X182300000Y-100052380D01*
X182204761Y-100195238D01*
X182109523Y-100290476D01*
X182014285Y-100338095D01*
%TO.C,J2*%
X212436666Y-75422380D02*
X212436666Y-76136666D01*
X212389047Y-76279523D01*
X212293809Y-76374761D01*
X212150952Y-76422380D01*
X212055714Y-76422380D01*
X212865238Y-75517619D02*
X212912857Y-75470000D01*
X213008095Y-75422380D01*
X213246190Y-75422380D01*
X213341428Y-75470000D01*
X213389047Y-75517619D01*
X213436666Y-75612857D01*
X213436666Y-75708095D01*
X213389047Y-75850952D01*
X212817619Y-76422380D01*
X213436666Y-76422380D01*
%TO.C,RESET1*%
X204452380Y-97428571D02*
X203976190Y-97761904D01*
X204452380Y-98000000D02*
X203452380Y-98000000D01*
X203452380Y-97619047D01*
X203500000Y-97523809D01*
X203547619Y-97476190D01*
X203642857Y-97428571D01*
X203785714Y-97428571D01*
X203880952Y-97476190D01*
X203928571Y-97523809D01*
X203976190Y-97619047D01*
X203976190Y-98000000D01*
X203928571Y-97000000D02*
X203928571Y-96666666D01*
X204452380Y-96523809D02*
X204452380Y-97000000D01*
X203452380Y-97000000D01*
X203452380Y-96523809D01*
X204404761Y-96142857D02*
X204452380Y-96000000D01*
X204452380Y-95761904D01*
X204404761Y-95666666D01*
X204357142Y-95619047D01*
X204261904Y-95571428D01*
X204166666Y-95571428D01*
X204071428Y-95619047D01*
X204023809Y-95666666D01*
X203976190Y-95761904D01*
X203928571Y-95952380D01*
X203880952Y-96047619D01*
X203833333Y-96095238D01*
X203738095Y-96142857D01*
X203642857Y-96142857D01*
X203547619Y-96095238D01*
X203500000Y-96047619D01*
X203452380Y-95952380D01*
X203452380Y-95714285D01*
X203500000Y-95571428D01*
X203928571Y-95142857D02*
X203928571Y-94809523D01*
X204452380Y-94666666D02*
X204452380Y-95142857D01*
X203452380Y-95142857D01*
X203452380Y-94666666D01*
X203452380Y-94380952D02*
X203452380Y-93809523D01*
X204452380Y-94095238D02*
X203452380Y-94095238D01*
X204452380Y-92952380D02*
X204452380Y-93523809D01*
X204452380Y-93238095D02*
X203452380Y-93238095D01*
X203595238Y-93333333D01*
X203690476Y-93428571D01*
X203738095Y-93523809D01*
%TO.C,R5*%
X202833333Y-83202380D02*
X202500000Y-82726190D01*
X202261904Y-83202380D02*
X202261904Y-82202380D01*
X202642857Y-82202380D01*
X202738095Y-82250000D01*
X202785714Y-82297619D01*
X202833333Y-82392857D01*
X202833333Y-82535714D01*
X202785714Y-82630952D01*
X202738095Y-82678571D01*
X202642857Y-82726190D01*
X202261904Y-82726190D01*
X203738095Y-82202380D02*
X203261904Y-82202380D01*
X203214285Y-82678571D01*
X203261904Y-82630952D01*
X203357142Y-82583333D01*
X203595238Y-82583333D01*
X203690476Y-82630952D01*
X203738095Y-82678571D01*
X203785714Y-82773809D01*
X203785714Y-83011904D01*
X203738095Y-83107142D01*
X203690476Y-83154761D01*
X203595238Y-83202380D01*
X203357142Y-83202380D01*
X203261904Y-83154761D01*
X203214285Y-83107142D01*
%TO.C,R4*%
X200833333Y-88202380D02*
X200500000Y-87726190D01*
X200261904Y-88202380D02*
X200261904Y-87202380D01*
X200642857Y-87202380D01*
X200738095Y-87250000D01*
X200785714Y-87297619D01*
X200833333Y-87392857D01*
X200833333Y-87535714D01*
X200785714Y-87630952D01*
X200738095Y-87678571D01*
X200642857Y-87726190D01*
X200261904Y-87726190D01*
X201690476Y-87535714D02*
X201690476Y-88202380D01*
X201452380Y-87154761D02*
X201214285Y-87869047D01*
X201833333Y-87869047D01*
%TO.C,R3*%
X201083333Y-81202380D02*
X200750000Y-80726190D01*
X200511904Y-81202380D02*
X200511904Y-80202380D01*
X200892857Y-80202380D01*
X200988095Y-80250000D01*
X201035714Y-80297619D01*
X201083333Y-80392857D01*
X201083333Y-80535714D01*
X201035714Y-80630952D01*
X200988095Y-80678571D01*
X200892857Y-80726190D01*
X200511904Y-80726190D01*
X201416666Y-80202380D02*
X202035714Y-80202380D01*
X201702380Y-80583333D01*
X201845238Y-80583333D01*
X201940476Y-80630952D01*
X201988095Y-80678571D01*
X202035714Y-80773809D01*
X202035714Y-81011904D01*
X201988095Y-81107142D01*
X201940476Y-81154761D01*
X201845238Y-81202380D01*
X201559523Y-81202380D01*
X201464285Y-81154761D01*
X201416666Y-81107142D01*
%TO.C,U2*%
X188500595Y-80812380D02*
X188500595Y-81621904D01*
X188548214Y-81717142D01*
X188595833Y-81764761D01*
X188691071Y-81812380D01*
X188881547Y-81812380D01*
X188976785Y-81764761D01*
X189024404Y-81717142D01*
X189072023Y-81621904D01*
X189072023Y-80812380D01*
X189500595Y-80907619D02*
X189548214Y-80860000D01*
X189643452Y-80812380D01*
X189881547Y-80812380D01*
X189976785Y-80860000D01*
X190024404Y-80907619D01*
X190072023Y-81002857D01*
X190072023Y-81098095D01*
X190024404Y-81240952D01*
X189452976Y-81812380D01*
X190072023Y-81812380D01*
%TO.C,J1*%
X178252380Y-95208333D02*
X178966666Y-95208333D01*
X179109523Y-95255952D01*
X179204761Y-95351190D01*
X179252380Y-95494047D01*
X179252380Y-95589285D01*
X179252380Y-94208333D02*
X179252380Y-94779761D01*
X179252380Y-94494047D02*
X178252380Y-94494047D01*
X178395238Y-94589285D01*
X178490476Y-94684523D01*
X178538095Y-94779761D01*
%TO.C,R2*%
X186952380Y-94666666D02*
X186476190Y-95000000D01*
X186952380Y-95238095D02*
X185952380Y-95238095D01*
X185952380Y-94857142D01*
X186000000Y-94761904D01*
X186047619Y-94714285D01*
X186142857Y-94666666D01*
X186285714Y-94666666D01*
X186380952Y-94714285D01*
X186428571Y-94761904D01*
X186476190Y-94857142D01*
X186476190Y-95238095D01*
X186047619Y-94285714D02*
X186000000Y-94238095D01*
X185952380Y-94142857D01*
X185952380Y-93904761D01*
X186000000Y-93809523D01*
X186047619Y-93761904D01*
X186142857Y-93714285D01*
X186238095Y-93714285D01*
X186380952Y-93761904D01*
X186952380Y-94333333D01*
X186952380Y-93714285D01*
%TO.C,U1*%
X191025595Y-96702380D02*
X191025595Y-97511904D01*
X191073214Y-97607142D01*
X191120833Y-97654761D01*
X191216071Y-97702380D01*
X191406547Y-97702380D01*
X191501785Y-97654761D01*
X191549404Y-97607142D01*
X191597023Y-97511904D01*
X191597023Y-96702380D01*
X192597023Y-97702380D02*
X192025595Y-97702380D01*
X192311309Y-97702380D02*
X192311309Y-96702380D01*
X192216071Y-96845238D01*
X192120833Y-96940476D01*
X192025595Y-96988095D01*
D11*
%TO.C,C2*%
X180200000Y-99535000D02*
X184285000Y-99535000D01*
X184285000Y-99535000D02*
X184285000Y-97665000D01*
X184285000Y-97665000D02*
X180200000Y-97665000D01*
%TO.C,FLASH1*%
X200870000Y-100220000D02*
X200870000Y-102280000D01*
X196130000Y-98880000D02*
X196130000Y-99280000D01*
X200870000Y-98880000D02*
X200870000Y-99280000D01*
X200870000Y-103620000D02*
X196130000Y-103620000D01*
X200870000Y-98880000D02*
X196130000Y-98880000D01*
X200870000Y-103620000D02*
X200870000Y-103220000D01*
X196130000Y-100220000D02*
X196130000Y-102280000D01*
X196130000Y-103620000D02*
X196130000Y-103220000D01*
%TO.C,C3*%
X199202500Y-91935000D02*
X203287500Y-91935000D01*
X203287500Y-90065000D02*
X199202500Y-90065000D01*
X199202500Y-90065000D02*
X199202500Y-91935000D01*
%TO.C,R1*%
X192235000Y-94727064D02*
X192235000Y-94272936D01*
X190765000Y-94727064D02*
X190765000Y-94272936D01*
%TO.C,C4*%
X182351248Y-93090000D02*
X183773752Y-93090000D01*
X182351248Y-94910000D02*
X183773752Y-94910000D01*
%TO.C,J3*%
X220000000Y-91012500D02*
X207000000Y-91012500D01*
X207000000Y-103012500D02*
X220000000Y-103012500D01*
X207000000Y-94262500D02*
X207000000Y-95762500D01*
X220000000Y-91762500D02*
X220000000Y-91012500D01*
X220000000Y-95762500D02*
X220000000Y-94262500D01*
X220000000Y-99762500D02*
X220000000Y-98262500D01*
X207000000Y-102262500D02*
X207000000Y-103012500D01*
X220000000Y-103012500D02*
X220000000Y-102262500D01*
X207000000Y-91012500D02*
X207000000Y-91762500D01*
X207000000Y-98262500D02*
X207000000Y-99762500D01*
%TO.C,C1*%
X180212500Y-103185000D02*
X184297500Y-103185000D01*
X184297500Y-103185000D02*
X184297500Y-101315000D01*
X184297500Y-101315000D02*
X180212500Y-101315000D01*
%TO.C,J2*%
X209295000Y-80540000D02*
X211405000Y-80540000D01*
X220145000Y-85620000D02*
X220145000Y-86500000D01*
X214145000Y-77050000D02*
X214145000Y-87450000D01*
X211405000Y-87450000D02*
X211405000Y-77050000D01*
X214145000Y-80540000D02*
X220145000Y-80540000D01*
X220145000Y-86500000D02*
X214145000Y-86500000D01*
X209295000Y-85620000D02*
X211405000Y-85620000D01*
X209295000Y-86500000D02*
X211405000Y-86500000D01*
X220145000Y-83960000D02*
X214145000Y-83960000D01*
X206155000Y-78440000D02*
X206155000Y-77620000D01*
X211405000Y-77050000D02*
X214145000Y-77050000D01*
X214145000Y-87450000D02*
X211405000Y-87450000D01*
X206155000Y-77620000D02*
X207725000Y-77620000D01*
X209295000Y-78000000D02*
X211405000Y-78000000D01*
X214145000Y-83080000D02*
X220145000Y-83080000D01*
X209295000Y-78880000D02*
X211405000Y-78880000D01*
X214145000Y-78000000D02*
X220145000Y-78000000D01*
X220145000Y-78000000D02*
X220145000Y-78880000D01*
X220145000Y-78880000D02*
X214145000Y-78880000D01*
X220145000Y-83080000D02*
X220145000Y-83960000D01*
X209295000Y-81420000D02*
X211405000Y-81420000D01*
X209295000Y-83080000D02*
X211405000Y-83080000D01*
X209295000Y-83960000D02*
X211405000Y-83960000D01*
X220145000Y-81420000D02*
X214145000Y-81420000D01*
X220145000Y-80540000D02*
X220145000Y-81420000D01*
X214145000Y-85620000D02*
X220145000Y-85620000D01*
%TO.C,RESET1*%
X200870000Y-94970000D02*
X200870000Y-97030000D01*
X200870000Y-98370000D02*
X200870000Y-97970000D01*
X200870000Y-93630000D02*
X200870000Y-94030000D01*
X196130000Y-94970000D02*
X196130000Y-97030000D01*
X196130000Y-93630000D02*
X196130000Y-94030000D01*
X196130000Y-98370000D02*
X196130000Y-97970000D01*
X200870000Y-93630000D02*
X196130000Y-93630000D01*
X200870000Y-98370000D02*
X196130000Y-98370000D01*
%TO.C,R5*%
X202265000Y-85022936D02*
X202265000Y-85477064D01*
X203735000Y-85022936D02*
X203735000Y-85477064D01*
%TO.C,R4*%
X200265000Y-85022936D02*
X200265000Y-85477064D01*
X201735000Y-85022936D02*
X201735000Y-85477064D01*
%TO.C,R3*%
X200515000Y-78477064D02*
X200515000Y-78022936D01*
X201985000Y-78477064D02*
X201985000Y-78022936D01*
%TO.C,U2*%
X184212500Y-75250000D02*
X183612500Y-75250000D01*
X198512500Y-75250000D02*
X197612500Y-75250000D01*
X198512500Y-81550000D02*
X198512500Y-80950000D01*
X174512500Y-75250000D02*
X174512500Y-91250000D01*
X188212500Y-75250000D02*
X187612500Y-75250000D01*
X187612500Y-91250000D02*
X188212500Y-91250000D01*
X198512500Y-87550000D02*
X198512500Y-86950000D01*
X182212500Y-75250000D02*
X174512500Y-75250000D01*
X193612500Y-91250000D02*
X194212500Y-91250000D01*
X183612500Y-91250000D02*
X184212500Y-91250000D01*
X196212500Y-75250000D02*
X195612500Y-75250000D01*
X195612500Y-91250000D02*
X196212500Y-91250000D01*
X186212500Y-75250000D02*
X185612500Y-75250000D01*
X198512500Y-77550000D02*
X198512500Y-75250000D01*
X198512500Y-91250000D02*
X197612500Y-91250000D01*
X194212500Y-75250000D02*
X193612500Y-75250000D01*
X192212500Y-75250000D02*
X191612500Y-75250000D01*
X191612500Y-91250000D02*
X192212500Y-91250000D01*
X198512500Y-79550000D02*
X198512500Y-78950000D01*
X174512500Y-91250000D02*
X181912500Y-91250000D01*
X190212500Y-75250000D02*
X189612500Y-75250000D01*
X198512500Y-83550000D02*
X198512500Y-82950000D01*
X198512500Y-85550000D02*
X198512500Y-84950000D01*
X185612500Y-91250000D02*
X186212500Y-91250000D01*
X198512500Y-88950000D02*
X198512500Y-91250000D01*
X189612500Y-91250000D02*
X190212500Y-91250000D01*
%TO.C,J1*%
X176230000Y-102560000D02*
X177960000Y-102560000D01*
X178660000Y-96990000D02*
X178270000Y-96990000D01*
X173660000Y-102560000D02*
X173870000Y-102560000D01*
X177960000Y-102560000D02*
X177960000Y-101910000D01*
X176230000Y-94940000D02*
X177960000Y-94940000D01*
X178660000Y-96990000D02*
X178660000Y-97440000D01*
X173660000Y-94940000D02*
X173870000Y-94940000D01*
X177960000Y-94940000D02*
X177960000Y-95600000D01*
%TO.C,R2*%
X188735000Y-94727064D02*
X188735000Y-94272936D01*
X187265000Y-94727064D02*
X187265000Y-94272936D01*
%TO.C,U1*%
X190760000Y-103410000D02*
X190760000Y-102150000D01*
X184750000Y-96590000D02*
X190760000Y-96590000D01*
X187000000Y-103410000D02*
X190760000Y-103410000D01*
X190760000Y-96590000D02*
X190760000Y-97850000D01*
%TD*%
D12*
%TO.C,J2*%
X217145000Y-78440000D03*
%TD*%
%LPC*%
D13*
%TO.C,C2*%
X183237500Y-98600000D03*
X180362500Y-98600000D03*
%TD*%
D14*
%TO.C,FLASH1*%
X202100000Y-102750000D03*
X194900000Y-102750000D03*
X202100000Y-99750000D03*
X194900000Y-99750000D03*
%TD*%
D15*
%TO.C,C3*%
X200250000Y-91000000D03*
X203125000Y-91000000D03*
%TD*%
D16*
%TO.C,R1*%
X191500000Y-95500000D03*
X191500000Y-93500000D03*
%TD*%
D17*
%TO.C,C4*%
X181500000Y-94000000D03*
X184625000Y-94000000D03*
%TD*%
D18*
%TO.C,J3*%
X217250000Y-101012500D03*
D19*
X208000000Y-101012500D03*
D18*
X217250000Y-97012500D03*
D19*
X208000000Y-97012500D03*
X208000000Y-93012500D03*
D18*
X217250000Y-93012500D03*
%TD*%
D13*
%TO.C,C1*%
X183250000Y-102250000D03*
X180375000Y-102250000D03*
%TD*%
D20*
%TO.C,J2*%
X207725000Y-78440000D03*
X207725000Y-80980000D03*
X207725000Y-83520000D03*
X207725000Y-86060000D03*
%TD*%
D14*
%TO.C,RESET1*%
X194900000Y-97500000D03*
X202100000Y-97500000D03*
X202100000Y-94500000D03*
X194900000Y-94500000D03*
%TD*%
D21*
%TO.C,R5*%
X203000000Y-84250000D03*
X203000000Y-86250000D03*
%TD*%
%TO.C,R4*%
X201000000Y-84250000D03*
X201000000Y-86250000D03*
%TD*%
D16*
%TO.C,R3*%
X201250000Y-79250000D03*
X201250000Y-77250000D03*
%TD*%
D22*
%TO.C,U2*%
X182912500Y-90950000D03*
X184912500Y-90950000D03*
X186912500Y-90950000D03*
X188912500Y-90950000D03*
X190912500Y-90950000D03*
X192912500Y-90950000D03*
X194912500Y-90950000D03*
X196912500Y-90950000D03*
X196912500Y-75550000D03*
X194912500Y-75550000D03*
X192912500Y-75550000D03*
X190912500Y-75550000D03*
X188912500Y-75550000D03*
X186912500Y-75550000D03*
X184912500Y-75550000D03*
X182912500Y-75550000D03*
D23*
X198612500Y-88260000D03*
X198612500Y-86260000D03*
X198612500Y-84260000D03*
X198612500Y-82260000D03*
X198612500Y-80260000D03*
X198612500Y-78260000D03*
%TD*%
D24*
%TO.C,J1*%
X177700000Y-97450000D03*
X177700000Y-98100000D03*
X177700000Y-98750000D03*
X177700000Y-99400000D03*
X177700000Y-100050000D03*
D25*
X175050000Y-97625000D03*
D26*
X177280000Y-101070000D03*
D27*
X175050000Y-95175000D03*
D26*
X177280000Y-96430000D03*
D25*
X175050000Y-99875000D03*
D27*
X175050000Y-102325000D03*
%TD*%
D16*
%TO.C,R2*%
X188000000Y-95500000D03*
X188000000Y-93500000D03*
%TD*%
D28*
%TO.C,U1*%
X185700000Y-97700000D03*
X185700000Y-100000000D03*
D29*
X192000000Y-100000000D03*
D28*
X185700000Y-102300000D03*
%TD*%
M02*
