%TF.GenerationSoftware,KiCad,Pcbnew,(6.0.0)*%
%TF.CreationDate,2023-04-27T21:52:48-07:00*%
%TF.ProjectId,dumpster_fire_shelf_led_controller,64756d70-7374-4657-925f-666972655f73,rev?*%
%TF.SameCoordinates,Original*%
%TF.FileFunction,Soldermask,Top*%
%TF.FilePolarity,Negative*%
%FSLAX46Y46*%
G04 Gerber Fmt 4.6, Leading zero omitted, Abs format (unit mm)*
G04 Created by KiCad (PCBNEW (6.0.0)) date 2023-04-27 21:52:48*
%MOMM*%
%LPD*%
G01*
G04 APERTURE LIST*
G04 Aperture macros list*
%AMRoundRect*
0 Rectangle with rounded corners*
0 $1 Rounding radius*
0 $2 $3 $4 $5 $6 $7 $8 $9 X,Y pos of 4 corners*
0 Add a 4 corners polygon primitive as box body*
4,1,4,$2,$3,$4,$5,$6,$7,$8,$9,$2,$3,0*
0 Add four circle primitives for the rounded corners*
1,1,$1+$1,$2,$3*
1,1,$1+$1,$4,$5*
1,1,$1+$1,$6,$7*
1,1,$1+$1,$8,$9*
0 Add four rect primitives between the rounded corners*
20,1,$1+$1,$2,$3,$4,$5,0*
20,1,$1+$1,$4,$5,$6,$7,0*
20,1,$1+$1,$6,$7,$8,$9,0*
20,1,$1+$1,$8,$9,$2,$3,0*%
G04 Aperture macros list end*
%ADD10RoundRect,0.250000X0.537500X0.425000X-0.537500X0.425000X-0.537500X-0.425000X0.537500X-0.425000X0*%
%ADD11R,1.600000X1.400000*%
%ADD12RoundRect,0.250000X-0.537500X-0.425000X0.537500X-0.425000X0.537500X0.425000X-0.537500X0.425000X0*%
%ADD13RoundRect,0.250000X0.450000X-0.350000X0.450000X0.350000X-0.450000X0.350000X-0.450000X-0.350000X0*%
%ADD14RoundRect,0.250000X-0.412500X-0.650000X0.412500X-0.650000X0.412500X0.650000X-0.412500X0.650000X0*%
%ADD15R,6.000000X2.000000*%
%ADD16R,3.500000X2.000000*%
%ADD17R,2.500000X1.000000*%
%ADD18RoundRect,0.250000X-0.450000X0.350000X-0.450000X-0.350000X0.450000X-0.350000X0.450000X0.350000X0*%
%ADD19R,1.100000X2.500000*%
%ADD20R,2.500000X1.100000*%
%ADD21R,1.400000X0.400000*%
%ADD22R,1.900000X1.750000*%
%ADD23R,1.450000X1.150000*%
%ADD24O,1.900000X1.050000*%
%ADD25R,2.000000X1.500000*%
%ADD26R,2.000000X3.800000*%
G04 APERTURE END LIST*
D10*
%TO.C,C2*%
X183237500Y-98600000D03*
X180362500Y-98600000D03*
%TD*%
D11*
%TO.C,FLASH1*%
X202100000Y-102750000D03*
X194900000Y-102750000D03*
X202100000Y-99750000D03*
X194900000Y-99750000D03*
%TD*%
D12*
%TO.C,C3*%
X200250000Y-91000000D03*
X203125000Y-91000000D03*
%TD*%
D13*
%TO.C,R1*%
X191500000Y-95500000D03*
X191500000Y-93500000D03*
%TD*%
D14*
%TO.C,C4*%
X181500000Y-94000000D03*
X184625000Y-94000000D03*
%TD*%
D15*
%TO.C,J3*%
X217250000Y-101012500D03*
D16*
X208000000Y-101012500D03*
D15*
X217250000Y-97012500D03*
D16*
X208000000Y-97012500D03*
X208000000Y-93012500D03*
D15*
X217250000Y-93012500D03*
%TD*%
D10*
%TO.C,C1*%
X183250000Y-102250000D03*
X180375000Y-102250000D03*
%TD*%
D17*
%TO.C,J2*%
X207725000Y-78440000D03*
X207725000Y-80980000D03*
X207725000Y-83520000D03*
X207725000Y-86060000D03*
%TD*%
D11*
%TO.C,RESET1*%
X194900000Y-97500000D03*
X202100000Y-97500000D03*
X202100000Y-94500000D03*
X194900000Y-94500000D03*
%TD*%
D18*
%TO.C,R5*%
X203000000Y-84250000D03*
X203000000Y-86250000D03*
%TD*%
%TO.C,R4*%
X201000000Y-84250000D03*
X201000000Y-86250000D03*
%TD*%
D13*
%TO.C,R3*%
X201250000Y-79250000D03*
X201250000Y-77250000D03*
%TD*%
D19*
%TO.C,U2*%
X182912500Y-90950000D03*
X184912500Y-90950000D03*
X186912500Y-90950000D03*
X188912500Y-90950000D03*
X190912500Y-90950000D03*
X192912500Y-90950000D03*
X194912500Y-90950000D03*
X196912500Y-90950000D03*
X196912500Y-75550000D03*
X194912500Y-75550000D03*
X192912500Y-75550000D03*
X190912500Y-75550000D03*
X188912500Y-75550000D03*
X186912500Y-75550000D03*
X184912500Y-75550000D03*
X182912500Y-75550000D03*
D20*
X198612500Y-88260000D03*
X198612500Y-86260000D03*
X198612500Y-84260000D03*
X198612500Y-82260000D03*
X198612500Y-80260000D03*
X198612500Y-78260000D03*
%TD*%
D21*
%TO.C,J1*%
X177700000Y-97450000D03*
X177700000Y-98100000D03*
X177700000Y-98750000D03*
X177700000Y-99400000D03*
X177700000Y-100050000D03*
D22*
X175050000Y-97625000D03*
D23*
X177280000Y-101070000D03*
D24*
X175050000Y-95175000D03*
D23*
X177280000Y-96430000D03*
D22*
X175050000Y-99875000D03*
D24*
X175050000Y-102325000D03*
%TD*%
D13*
%TO.C,R2*%
X188000000Y-95500000D03*
X188000000Y-93500000D03*
%TD*%
D25*
%TO.C,U1*%
X185700000Y-97700000D03*
X185700000Y-100000000D03*
D26*
X192000000Y-100000000D03*
D25*
X185700000Y-102300000D03*
%TD*%
M02*
