%TF.GenerationSoftware,KiCad,Pcbnew,(6.0.0)*%
%TF.CreationDate,2023-04-27T21:52:48-07:00*%
%TF.ProjectId,dumpster_fire_shelf_led_controller,64756d70-7374-4657-925f-666972655f73,rev?*%
%TF.SameCoordinates,Original*%
%TF.FileFunction,Copper,L1,Top*%
%TF.FilePolarity,Positive*%
%FSLAX46Y46*%
G04 Gerber Fmt 4.6, Leading zero omitted, Abs format (unit mm)*
G04 Created by KiCad (PCBNEW (6.0.0)) date 2023-04-27 21:52:48*
%MOMM*%
%LPD*%
G01*
G04 APERTURE LIST*
G04 Aperture macros list*
%AMRoundRect*
0 Rectangle with rounded corners*
0 $1 Rounding radius*
0 $2 $3 $4 $5 $6 $7 $8 $9 X,Y pos of 4 corners*
0 Add a 4 corners polygon primitive as box body*
4,1,4,$2,$3,$4,$5,$6,$7,$8,$9,$2,$3,0*
0 Add four circle primitives for the rounded corners*
1,1,$1+$1,$2,$3*
1,1,$1+$1,$4,$5*
1,1,$1+$1,$6,$7*
1,1,$1+$1,$8,$9*
0 Add four rect primitives between the rounded corners*
20,1,$1+$1,$2,$3,$4,$5,0*
20,1,$1+$1,$4,$5,$6,$7,0*
20,1,$1+$1,$6,$7,$8,$9,0*
20,1,$1+$1,$8,$9,$2,$3,0*%
G04 Aperture macros list end*
%TA.AperFunction,SMDPad,CuDef*%
%ADD10RoundRect,0.250000X0.537500X0.425000X-0.537500X0.425000X-0.537500X-0.425000X0.537500X-0.425000X0*%
%TD*%
%TA.AperFunction,SMDPad,CuDef*%
%ADD11R,1.600000X1.400000*%
%TD*%
%TA.AperFunction,SMDPad,CuDef*%
%ADD12RoundRect,0.250000X-0.537500X-0.425000X0.537500X-0.425000X0.537500X0.425000X-0.537500X0.425000X0*%
%TD*%
%TA.AperFunction,SMDPad,CuDef*%
%ADD13RoundRect,0.250000X0.450000X-0.350000X0.450000X0.350000X-0.450000X0.350000X-0.450000X-0.350000X0*%
%TD*%
%TA.AperFunction,SMDPad,CuDef*%
%ADD14RoundRect,0.250000X-0.412500X-0.650000X0.412500X-0.650000X0.412500X0.650000X-0.412500X0.650000X0*%
%TD*%
%TA.AperFunction,SMDPad,CuDef*%
%ADD15R,6.000000X2.000000*%
%TD*%
%TA.AperFunction,SMDPad,CuDef*%
%ADD16R,3.500000X2.000000*%
%TD*%
%TA.AperFunction,SMDPad,CuDef*%
%ADD17R,2.500000X1.000000*%
%TD*%
%TA.AperFunction,SMDPad,CuDef*%
%ADD18RoundRect,0.250000X-0.450000X0.350000X-0.450000X-0.350000X0.450000X-0.350000X0.450000X0.350000X0*%
%TD*%
%TA.AperFunction,SMDPad,CuDef*%
%ADD19R,1.100000X2.500000*%
%TD*%
%TA.AperFunction,SMDPad,CuDef*%
%ADD20R,2.500000X1.100000*%
%TD*%
%TA.AperFunction,SMDPad,CuDef*%
%ADD21R,1.400000X0.400000*%
%TD*%
%TA.AperFunction,SMDPad,CuDef*%
%ADD22R,1.900000X1.750000*%
%TD*%
%TA.AperFunction,SMDPad,CuDef*%
%ADD23R,1.450000X1.150000*%
%TD*%
%TA.AperFunction,ComponentPad*%
%ADD24O,1.900000X1.050000*%
%TD*%
%TA.AperFunction,SMDPad,CuDef*%
%ADD25R,2.000000X1.500000*%
%TD*%
%TA.AperFunction,SMDPad,CuDef*%
%ADD26R,2.000000X3.800000*%
%TD*%
%TA.AperFunction,ViaPad*%
%ADD27C,0.800000*%
%TD*%
%TA.AperFunction,Conductor*%
%ADD28C,0.300000*%
%TD*%
%TA.AperFunction,Conductor*%
%ADD29C,0.200000*%
%TD*%
G04 APERTURE END LIST*
D10*
%TO.P,C2,1*%
%TO.N,+3V3*%
X183237500Y-98600000D03*
%TO.P,C2,2*%
%TO.N,GND*%
X180362500Y-98600000D03*
%TD*%
D11*
%TO.P,FLASH1,1,1*%
%TO.N,GND*%
X202100000Y-102750000D03*
X194900000Y-102750000D03*
%TO.P,FLASH1,2,2*%
%TO.N,GPIO0*%
X202100000Y-99750000D03*
X194900000Y-99750000D03*
%TD*%
D12*
%TO.P,C3,1*%
%TO.N,+3V3*%
X200250000Y-91000000D03*
%TO.P,C3,2*%
%TO.N,GND*%
X203125000Y-91000000D03*
%TD*%
D13*
%TO.P,R1,1*%
%TO.N,+3V3*%
X191500000Y-95500000D03*
%TO.P,R1,2*%
%TO.N,RESET*%
X191500000Y-93500000D03*
%TD*%
D14*
%TO.P,C4,1*%
%TO.N,GND*%
X181500000Y-94000000D03*
%TO.P,C4,2*%
%TO.N,EN*%
X184625000Y-94000000D03*
%TD*%
D15*
%TO.P,J3,1,Pin_1*%
%TO.N,+5V*%
X217250000Y-101012500D03*
D16*
X208000000Y-101012500D03*
D15*
%TO.P,J3,2,Pin_2*%
%TO.N,SIG*%
X217250000Y-97012500D03*
D16*
X208000000Y-97012500D03*
%TO.P,J3,3,Pin_3*%
%TO.N,GND*%
X208000000Y-93012500D03*
D15*
X217250000Y-93012500D03*
%TD*%
D10*
%TO.P,C1,1*%
%TO.N,+5V*%
X183250000Y-102250000D03*
%TO.P,C1,2*%
%TO.N,GND*%
X180375000Y-102250000D03*
%TD*%
D17*
%TO.P,J2,1,Pin_1*%
%TO.N,+3V3*%
X207725000Y-78440000D03*
%TO.P,J2,2,Pin_2*%
%TO.N,TX*%
X207725000Y-80980000D03*
%TO.P,J2,3,Pin_3*%
%TO.N,RX*%
X207725000Y-83520000D03*
%TO.P,J2,4,Pin_4*%
%TO.N,GND*%
X207725000Y-86060000D03*
%TD*%
D11*
%TO.P,RESET1,1,1*%
%TO.N,GND*%
X194900000Y-97500000D03*
X202100000Y-97500000D03*
%TO.P,RESET1,2,2*%
%TO.N,RESET*%
X202100000Y-94500000D03*
X194900000Y-94500000D03*
%TD*%
D18*
%TO.P,R5,1*%
%TO.N,GPIO0*%
X203000000Y-84250000D03*
%TO.P,R5,2*%
%TO.N,+3V3*%
X203000000Y-86250000D03*
%TD*%
%TO.P,R4,1*%
%TO.N,GPIO2*%
X201000000Y-84250000D03*
%TO.P,R4,2*%
%TO.N,+3V3*%
X201000000Y-86250000D03*
%TD*%
D13*
%TO.P,R3,1*%
%TO.N,GPIO15*%
X201250000Y-79250000D03*
%TO.P,R3,2*%
%TO.N,GND*%
X201250000Y-77250000D03*
%TD*%
D19*
%TO.P,U2,1,REST*%
%TO.N,RESET*%
X182912500Y-90950000D03*
%TO.P,U2,2,ADC*%
%TO.N,unconnected-(U2-Pad2)*%
X184912500Y-90950000D03*
%TO.P,U2,3,CH_PD*%
%TO.N,EN*%
X186912500Y-90950000D03*
%TO.P,U2,4,GPIO16*%
%TO.N,unconnected-(U2-Pad4)*%
X188912500Y-90950000D03*
%TO.P,U2,5,GPIO14*%
%TO.N,unconnected-(U2-Pad5)*%
X190912500Y-90950000D03*
%TO.P,U2,6,GPIO12*%
%TO.N,unconnected-(U2-Pad6)*%
X192912500Y-90950000D03*
%TO.P,U2,7,GPIO13*%
%TO.N,unconnected-(U2-Pad7)*%
X194912500Y-90950000D03*
%TO.P,U2,8,VCC*%
%TO.N,+3V3*%
X196912500Y-90950000D03*
%TO.P,U2,9,GND*%
%TO.N,GND*%
X196912500Y-75550000D03*
%TO.P,U2,10,GPIO15*%
%TO.N,GPIO15*%
X194912500Y-75550000D03*
%TO.P,U2,11,GPIO2*%
%TO.N,GPIO2*%
X192912500Y-75550000D03*
%TO.P,U2,12,GPIO0*%
%TO.N,GPIO0*%
X190912500Y-75550000D03*
%TO.P,U2,13,GPIO4*%
%TO.N,unconnected-(U2-Pad13)*%
X188912500Y-75550000D03*
%TO.P,U2,14,GPIO5*%
%TO.N,SIG*%
X186912500Y-75550000D03*
%TO.P,U2,15,RXD*%
%TO.N,RX*%
X184912500Y-75550000D03*
%TO.P,U2,16,TXD*%
%TO.N,TX*%
X182912500Y-75550000D03*
D20*
%TO.P,U2,17,CS0*%
%TO.N,unconnected-(U2-Pad17)*%
X198612500Y-88260000D03*
%TO.P,U2,18,MISO*%
%TO.N,unconnected-(U2-Pad18)*%
X198612500Y-86260000D03*
%TO.P,U2,19,GPIO9*%
%TO.N,unconnected-(U2-Pad19)*%
X198612500Y-84260000D03*
%TO.P,U2,20,GPIO10*%
%TO.N,unconnected-(U2-Pad20)*%
X198612500Y-82260000D03*
%TO.P,U2,21,MOSI*%
%TO.N,unconnected-(U2-Pad21)*%
X198612500Y-80260000D03*
%TO.P,U2,22,SCLK*%
%TO.N,unconnected-(U2-Pad22)*%
X198612500Y-78260000D03*
%TD*%
D21*
%TO.P,J1,1,VBUS*%
%TO.N,+5V*%
X177700000Y-97450000D03*
%TO.P,J1,2,D-*%
%TO.N,unconnected-(J1-Pad2)*%
X177700000Y-98100000D03*
%TO.P,J1,3,D+*%
%TO.N,unconnected-(J1-Pad3)*%
X177700000Y-98750000D03*
%TO.P,J1,4,ID*%
%TO.N,unconnected-(J1-Pad4)*%
X177700000Y-99400000D03*
%TO.P,J1,5,GND*%
%TO.N,GND*%
X177700000Y-100050000D03*
D22*
%TO.P,J1,6,Shield*%
X175050000Y-97625000D03*
D23*
X177280000Y-101070000D03*
D24*
X175050000Y-95175000D03*
D23*
X177280000Y-96430000D03*
D22*
X175050000Y-99875000D03*
D24*
X175050000Y-102325000D03*
%TD*%
D13*
%TO.P,R2,1*%
%TO.N,+3V3*%
X188000000Y-95500000D03*
%TO.P,R2,2*%
%TO.N,EN*%
X188000000Y-93500000D03*
%TD*%
D25*
%TO.P,U1,1,GND*%
%TO.N,GND*%
X185700000Y-97700000D03*
%TO.P,U1,2,VO*%
%TO.N,+3V3*%
X185700000Y-100000000D03*
D26*
X192000000Y-100000000D03*
D25*
%TO.P,U1,3,VI*%
%TO.N,+5V*%
X185700000Y-102300000D03*
%TD*%
D27*
%TO.N,GND*%
X202250000Y-89750000D03*
X196500000Y-102750000D03*
X196906923Y-77446080D03*
X187500000Y-97750000D03*
X200500000Y-102750000D03*
X200500000Y-97500000D03*
X196500000Y-97500000D03*
%TO.N,+3V3*%
X204000000Y-87250000D03*
X204500000Y-92250000D03*
%TO.N,RESET*%
X200500000Y-94500000D03*
X196500000Y-94500000D03*
%TO.N,GPIO2*%
X196389714Y-84842982D03*
X193000000Y-77500000D03*
%TO.N,GPIO0*%
X191000000Y-77500000D03*
X203500000Y-98750000D03*
X196248662Y-85758685D03*
X204250000Y-85000000D03*
%TD*%
D28*
%TO.N,+5V*%
X194440522Y-101012500D02*
X208000000Y-101012500D01*
X182173480Y-98573480D02*
X182173480Y-101173480D01*
X185700000Y-102300000D02*
X193153022Y-102300000D01*
X181050000Y-97450000D02*
X182173480Y-98573480D01*
X183250000Y-102250000D02*
X185650000Y-102250000D01*
X193153022Y-102300000D02*
X194440522Y-101012500D01*
X177700000Y-97450000D02*
X181050000Y-97450000D01*
X208000000Y-101012500D02*
X217250000Y-101012500D01*
X182173480Y-101173480D02*
X183250000Y-102250000D01*
X185650000Y-102250000D02*
X185700000Y-102300000D01*
%TO.N,GND*%
X177280000Y-100470000D02*
X177700000Y-100050000D01*
X175050000Y-97625000D02*
X175050000Y-99875000D01*
X177280000Y-96430000D02*
X176245000Y-96430000D01*
X177280000Y-101070000D02*
X177280000Y-100470000D01*
X209750000Y-84750000D02*
X209750000Y-77750000D01*
X200500000Y-97500000D02*
X202100000Y-97500000D01*
X200250000Y-76250000D02*
X201250000Y-77250000D01*
X196500000Y-102750000D02*
X194900000Y-102750000D01*
X177280000Y-96430000D02*
X182070000Y-96430000D01*
X208000000Y-86335000D02*
X207725000Y-86060000D01*
X181500000Y-95860000D02*
X182070000Y-96430000D01*
X175050000Y-97625000D02*
X175050000Y-95175000D01*
X196912500Y-76250000D02*
X200250000Y-76250000D01*
X196906923Y-76255577D02*
X196912500Y-76250000D01*
X180362500Y-98600000D02*
X180362500Y-102237500D01*
X208440000Y-86060000D02*
X209750000Y-84750000D01*
X208000000Y-93012500D02*
X208000000Y-86335000D01*
X181500000Y-94000000D02*
X181500000Y-95860000D01*
X209250000Y-77250000D02*
X201250000Y-77250000D01*
X187450000Y-97700000D02*
X187500000Y-97750000D01*
X196906923Y-77446080D02*
X196906923Y-76255577D01*
X184430000Y-96430000D02*
X185700000Y-97700000D01*
X176245000Y-101070000D02*
X175050000Y-99875000D01*
X177700000Y-100050000D02*
X178175000Y-100050000D01*
X207725000Y-86060000D02*
X208440000Y-86060000D01*
X202250000Y-89750000D02*
X202250000Y-90125000D01*
X180362500Y-102237500D02*
X180375000Y-102250000D01*
X209750000Y-77750000D02*
X209250000Y-77250000D01*
X208000000Y-93012500D02*
X217250000Y-93012500D01*
X202100000Y-102750000D02*
X200500000Y-102750000D01*
X185700000Y-97700000D02*
X187450000Y-97700000D01*
X178175000Y-100050000D02*
X180375000Y-102250000D01*
X202250000Y-90125000D02*
X203125000Y-91000000D01*
X177280000Y-101070000D02*
X176245000Y-101070000D01*
X194900000Y-97500000D02*
X196500000Y-97500000D01*
X175050000Y-99875000D02*
X175050000Y-102325000D01*
X176245000Y-96430000D02*
X175050000Y-97625000D01*
X182070000Y-96430000D02*
X184430000Y-96430000D01*
D29*
%TO.N,+3V3*%
X200250000Y-91000000D02*
X201500000Y-92250000D01*
X203000000Y-86250000D02*
X201000000Y-86250000D01*
X192000000Y-96000000D02*
X191500000Y-95500000D01*
X184300000Y-98600000D02*
X185700000Y-100000000D01*
X201500000Y-92250000D02*
X204500000Y-92250000D01*
X192000000Y-100000000D02*
X192000000Y-96000000D01*
X197250000Y-94750000D02*
X197250000Y-90587500D01*
X197662500Y-91000000D02*
X196912500Y-90250000D01*
X207725000Y-78440000D02*
X209250000Y-79965000D01*
X209250000Y-84198022D02*
X208114533Y-85333489D01*
X197250000Y-90587500D02*
X196912500Y-90250000D01*
X200250000Y-91000000D02*
X197662500Y-91000000D01*
X203886021Y-86250000D02*
X203000000Y-86250000D01*
X209250000Y-79965000D02*
X209250000Y-84198022D01*
X185700000Y-100000000D02*
X192000000Y-100000000D01*
X191500000Y-95500000D02*
X196500000Y-95500000D01*
X196500000Y-95500000D02*
X197250000Y-94750000D01*
X204802532Y-85333489D02*
X203886021Y-86250000D01*
X204000000Y-87250000D02*
X203000000Y-86250000D01*
X183237500Y-98600000D02*
X184300000Y-98600000D01*
X191500000Y-95500000D02*
X188000000Y-95500000D01*
X208114533Y-85333489D02*
X204802532Y-85333489D01*
%TO.N,TX*%
X189746969Y-73746969D02*
X189746969Y-77132990D01*
X193863979Y-81250000D02*
X199750000Y-81250000D01*
X189746969Y-77132990D02*
X193863979Y-81250000D01*
X182912500Y-75296978D02*
X184462509Y-73746969D01*
X184462509Y-73746969D02*
X189746969Y-73746969D01*
X199750000Y-81250000D02*
X200020000Y-80980000D01*
X182912500Y-76250000D02*
X182912500Y-75296978D01*
X200020000Y-80980000D02*
X207725000Y-80980000D01*
%TO.N,RX*%
X188135989Y-74635989D02*
X188135989Y-77026511D01*
X186135989Y-74073489D02*
X187573489Y-74073489D01*
X184912500Y-76250000D02*
X184912500Y-75296978D01*
X187573489Y-74073489D02*
X188135989Y-74635989D01*
X194359478Y-83250000D02*
X207455000Y-83250000D01*
X184912500Y-75296978D02*
X186135989Y-74073489D01*
X207455000Y-83250000D02*
X207725000Y-83520000D01*
X188135989Y-77026511D02*
X194359478Y-83250000D01*
%TO.N,SIG*%
X186912500Y-79374269D02*
X196574742Y-89036511D01*
X205250000Y-95250000D02*
X207012500Y-97012500D01*
X205250000Y-91488599D02*
X205250000Y-95250000D01*
X208000000Y-97012500D02*
X217250000Y-97012500D01*
X202797912Y-89036511D02*
X205250000Y-91488599D01*
X207012500Y-97012500D02*
X208000000Y-97012500D01*
X196574742Y-89036511D02*
X202797912Y-89036511D01*
X186912500Y-76250000D02*
X186912500Y-79374269D01*
%TO.N,EN*%
X186912500Y-92412500D02*
X186912500Y-90250000D01*
X188000000Y-93500000D02*
X186912500Y-92412500D01*
X184625000Y-94000000D02*
X185325000Y-94000000D01*
X185325000Y-94000000D02*
X186912500Y-92412500D01*
%TO.N,RESET*%
X191500000Y-93500000D02*
X190673480Y-94326520D01*
X186034881Y-94326520D02*
X185111401Y-95250000D01*
X184138599Y-95250000D02*
X182912500Y-94023901D01*
X190673480Y-94326520D02*
X186034881Y-94326520D01*
X192500000Y-94500000D02*
X191500000Y-93500000D01*
X185111401Y-95250000D02*
X184138599Y-95250000D01*
X194900000Y-94500000D02*
X192500000Y-94500000D01*
X200500000Y-94500000D02*
X202100000Y-94500000D01*
X194900000Y-94500000D02*
X196500000Y-94500000D01*
X182912500Y-94023901D02*
X182912500Y-90250000D01*
%TO.N,GPIO15*%
X201250000Y-79250000D02*
X197349478Y-79250000D01*
X197349478Y-79250000D02*
X194912500Y-76813022D01*
X194912500Y-76813022D02*
X194912500Y-76250000D01*
%TO.N,GPIO2*%
X193000000Y-77500000D02*
X193000000Y-76337500D01*
X200213489Y-85036511D02*
X196583243Y-85036511D01*
X201000000Y-84250000D02*
X200213489Y-85036511D01*
X196583243Y-85036511D02*
X196389714Y-84842982D01*
X193000000Y-76337500D02*
X192912500Y-76250000D01*
%TO.N,GPIO0*%
X191000000Y-76337500D02*
X190912500Y-76250000D01*
X191000000Y-77500000D02*
X191000000Y-76337500D01*
X204250000Y-85000000D02*
X203750000Y-85000000D01*
X201826520Y-85423480D02*
X203000000Y-84250000D01*
X202500000Y-99750000D02*
X203500000Y-98750000D01*
X197212509Y-85423480D02*
X196877304Y-85758685D01*
X201826520Y-85423480D02*
X197212509Y-85423480D01*
X194900000Y-99750000D02*
X202100000Y-99750000D01*
X196877304Y-85758685D02*
X196248662Y-85758685D01*
X202100000Y-99750000D02*
X202500000Y-99750000D01*
X203750000Y-85000000D02*
X203000000Y-84250000D01*
%TD*%
M02*
