%FSLAX45Y45*%
G04 Gerber Fmt 4.5, Leading zero omitted, Abs format (unit mm)*
G04 Created by KiCad (PCBNEW (6.0.0)) date 2023-04-27 21:53:18*
%MOMM*%
%LPD*%
G01*
G04 APERTURE LIST*
%TA.AperFunction,Profile*%
%ADD10C,0.100000*%
%TD*%
%ADD11C,0.200000*%
%ADD12C,0.040000*%
%ADD13C,0.045000*%
G04 APERTURE END LIST*
D10*
X22075000Y-10425000D02*
X17350000Y-10425000D01*
X17350000Y-10425000D02*
X17350000Y-7325000D01*
X17350000Y-7325000D02*
X22075000Y-7325000D01*
X22075000Y-7325000D02*
X22075000Y-10425000D01*
D11*
D12*
X18730000Y-9755000D02*
X18770000Y-9795000D01*
X18770000Y-9755000D02*
X18730000Y-9795000D01*
X19080000Y-7730000D02*
X19120000Y-7770000D01*
X19120000Y-7730000D02*
X19080000Y-7770000D01*
X19280000Y-7730000D02*
X19320000Y-7770000D01*
X19320000Y-7730000D02*
X19280000Y-7770000D01*
X19604866Y-8555869D02*
X19644866Y-8595869D01*
X19644866Y-8555869D02*
X19604866Y-8595869D01*
X19618971Y-8464298D02*
X19658971Y-8504298D01*
X19658971Y-8464298D02*
X19618971Y-8504298D01*
X19630000Y-9430000D02*
X19670000Y-9470000D01*
X19670000Y-9430000D02*
X19630000Y-9470000D01*
X19630000Y-9730000D02*
X19670000Y-9770000D01*
X19670000Y-9730000D02*
X19630000Y-9770000D01*
X19630000Y-10255000D02*
X19670000Y-10295000D01*
X19670000Y-10255000D02*
X19630000Y-10295000D01*
X19670692Y-7724608D02*
X19710692Y-7764608D01*
X19710692Y-7724608D02*
X19670692Y-7764608D01*
X20030000Y-9430000D02*
X20070000Y-9470000D01*
X20070000Y-9430000D02*
X20030000Y-9470000D01*
X20030000Y-9730000D02*
X20070000Y-9770000D01*
X20070000Y-9730000D02*
X20030000Y-9770000D01*
X20030000Y-10255000D02*
X20070000Y-10295000D01*
X20070000Y-10255000D02*
X20030000Y-10295000D01*
X20205000Y-8955000D02*
X20245000Y-8995000D01*
X20245000Y-8955000D02*
X20205000Y-8995000D01*
X20330000Y-9855000D02*
X20370000Y-9895000D01*
X20370000Y-9855000D02*
X20330000Y-9895000D01*
X20380000Y-8705000D02*
X20420000Y-8745000D01*
X20420000Y-8705000D02*
X20380000Y-8745000D01*
X20405000Y-8480000D02*
X20445000Y-8520000D01*
X20445000Y-8480000D02*
X20405000Y-8520000D01*
X20430000Y-9205000D02*
X20470000Y-9245000D01*
X20470000Y-9205000D02*
X20430000Y-9245000D01*
D13*
X17527500Y-9517500D02*
G75*
G03*
X17527500Y-9517500I-22500J0D01*
G01*
D11*
X17465000Y-9530000D02*
X17545000Y-9530000D01*
X17465000Y-9505000D02*
X17545000Y-9505000D01*
X17545000Y-9530000D02*
G75*
G03*
X17545000Y-9505000I0J12500D01*
G01*
X17465000Y-9505000D02*
G75*
G03*
X17465000Y-9530000I0J-12500D01*
G01*
D13*
X17527500Y-10232500D02*
G75*
G03*
X17527500Y-10232500I-22500J0D01*
G01*
D11*
X17545000Y-10220000D02*
X17465000Y-10220000D01*
X17545000Y-10245000D02*
X17465000Y-10245000D01*
X17465000Y-10220000D02*
G75*
G03*
X17465000Y-10245000I0J-12500D01*
G01*
X17545000Y-10245000D02*
G75*
G03*
X17545000Y-10220000I0J12500D01*
G01*
X17602619Y-10740476D02*
X17602619Y-10540476D01*
X17650238Y-10540476D01*
X17678810Y-10550000D01*
X17697857Y-10569048D01*
X17707381Y-10588095D01*
X17716905Y-10626190D01*
X17716905Y-10654762D01*
X17707381Y-10692857D01*
X17697857Y-10711905D01*
X17678810Y-10730952D01*
X17650238Y-10740476D01*
X17602619Y-10740476D01*
X17802619Y-10740476D02*
X17802619Y-10607143D01*
X17802619Y-10645238D02*
X17812143Y-10626190D01*
X17821667Y-10616667D01*
X17840714Y-10607143D01*
X17859762Y-10607143D01*
X17926429Y-10740476D02*
X17926429Y-10607143D01*
X17926429Y-10540476D02*
X17916905Y-10550000D01*
X17926429Y-10559524D01*
X17935952Y-10550000D01*
X17926429Y-10540476D01*
X17926429Y-10559524D01*
X18050238Y-10740476D02*
X18031190Y-10730952D01*
X18021667Y-10711905D01*
X18021667Y-10540476D01*
X18155000Y-10740476D02*
X18135952Y-10730952D01*
X18126429Y-10711905D01*
X18126429Y-10540476D01*
X18383571Y-10740476D02*
X18383571Y-10540476D01*
X18450238Y-10683333D01*
X18516905Y-10540476D01*
X18516905Y-10740476D01*
X18697857Y-10740476D02*
X18697857Y-10635714D01*
X18688333Y-10616667D01*
X18669286Y-10607143D01*
X18631190Y-10607143D01*
X18612143Y-10616667D01*
X18697857Y-10730952D02*
X18678810Y-10740476D01*
X18631190Y-10740476D01*
X18612143Y-10730952D01*
X18602619Y-10711905D01*
X18602619Y-10692857D01*
X18612143Y-10673810D01*
X18631190Y-10664286D01*
X18678810Y-10664286D01*
X18697857Y-10654762D01*
X18793095Y-10607143D02*
X18793095Y-10807143D01*
X18793095Y-10616667D02*
X18812143Y-10607143D01*
X18850238Y-10607143D01*
X18869286Y-10616667D01*
X18878810Y-10626190D01*
X18888333Y-10645238D01*
X18888333Y-10702381D01*
X18878810Y-10721429D01*
X18869286Y-10730952D01*
X18850238Y-10740476D01*
X18812143Y-10740476D01*
X18793095Y-10730952D01*
X18974048Y-10721429D02*
X18983571Y-10730952D01*
X18974048Y-10740476D01*
X18964524Y-10730952D01*
X18974048Y-10721429D01*
X18974048Y-10740476D01*
X18974048Y-10616667D02*
X18983571Y-10626190D01*
X18974048Y-10635714D01*
X18964524Y-10626190D01*
X18974048Y-10616667D01*
X18974048Y-10635714D01*
D12*
X17305000Y-11050000D02*
X17345000Y-11090000D01*
X17345000Y-11050000D02*
X17305000Y-11090000D01*
D11*
X17640714Y-10960476D02*
X17659762Y-10960476D01*
X17678810Y-10970000D01*
X17688333Y-10979524D01*
X17697857Y-10998571D01*
X17707381Y-11036667D01*
X17707381Y-11084286D01*
X17697857Y-11122381D01*
X17688333Y-11141429D01*
X17678810Y-11150952D01*
X17659762Y-11160476D01*
X17640714Y-11160476D01*
X17621667Y-11150952D01*
X17612143Y-11141429D01*
X17602619Y-11122381D01*
X17593095Y-11084286D01*
X17593095Y-11036667D01*
X17602619Y-10998571D01*
X17612143Y-10979524D01*
X17621667Y-10970000D01*
X17640714Y-10960476D01*
X17793095Y-11141429D02*
X17802619Y-11150952D01*
X17793095Y-11160476D01*
X17783571Y-11150952D01*
X17793095Y-11141429D01*
X17793095Y-11160476D01*
X17974048Y-11027143D02*
X17974048Y-11160476D01*
X17926429Y-10950952D02*
X17878810Y-11093810D01*
X18002619Y-11093810D01*
X18116905Y-10960476D02*
X18135952Y-10960476D01*
X18155000Y-10970000D01*
X18164524Y-10979524D01*
X18174048Y-10998571D01*
X18183571Y-11036667D01*
X18183571Y-11084286D01*
X18174048Y-11122381D01*
X18164524Y-11141429D01*
X18155000Y-11150952D01*
X18135952Y-11160476D01*
X18116905Y-11160476D01*
X18097857Y-11150952D01*
X18088333Y-11141429D01*
X18078810Y-11122381D01*
X18069286Y-11084286D01*
X18069286Y-11036667D01*
X18078810Y-10998571D01*
X18088333Y-10979524D01*
X18097857Y-10970000D01*
X18116905Y-10960476D01*
X18307381Y-10960476D02*
X18326429Y-10960476D01*
X18345476Y-10970000D01*
X18355000Y-10979524D01*
X18364524Y-10998571D01*
X18374048Y-11036667D01*
X18374048Y-11084286D01*
X18364524Y-11122381D01*
X18355000Y-11141429D01*
X18345476Y-11150952D01*
X18326429Y-11160476D01*
X18307381Y-11160476D01*
X18288333Y-11150952D01*
X18278810Y-11141429D01*
X18269286Y-11122381D01*
X18259762Y-11084286D01*
X18259762Y-11036667D01*
X18269286Y-10998571D01*
X18278810Y-10979524D01*
X18288333Y-10970000D01*
X18307381Y-10960476D01*
X18459762Y-11160476D02*
X18459762Y-11027143D01*
X18459762Y-11046190D02*
X18469286Y-11036667D01*
X18488333Y-11027143D01*
X18516905Y-11027143D01*
X18535952Y-11036667D01*
X18545476Y-11055714D01*
X18545476Y-11160476D01*
X18545476Y-11055714D02*
X18555000Y-11036667D01*
X18574048Y-11027143D01*
X18602619Y-11027143D01*
X18621667Y-11036667D01*
X18631190Y-11055714D01*
X18631190Y-11160476D01*
X18726429Y-11160476D02*
X18726429Y-11027143D01*
X18726429Y-11046190D02*
X18735952Y-11036667D01*
X18755000Y-11027143D01*
X18783571Y-11027143D01*
X18802619Y-11036667D01*
X18812143Y-11055714D01*
X18812143Y-11160476D01*
X18812143Y-11055714D02*
X18821667Y-11036667D01*
X18840714Y-11027143D01*
X18869286Y-11027143D01*
X18888333Y-11036667D01*
X18897857Y-11055714D01*
X18897857Y-11160476D01*
X19288333Y-10950952D02*
X19116905Y-11208095D01*
X19545476Y-10960476D02*
X19564524Y-10960476D01*
X19583571Y-10970000D01*
X19593095Y-10979524D01*
X19602619Y-10998571D01*
X19612143Y-11036667D01*
X19612143Y-11084286D01*
X19602619Y-11122381D01*
X19593095Y-11141429D01*
X19583571Y-11150952D01*
X19564524Y-11160476D01*
X19545476Y-11160476D01*
X19526429Y-11150952D01*
X19516905Y-11141429D01*
X19507381Y-11122381D01*
X19497857Y-11084286D01*
X19497857Y-11036667D01*
X19507381Y-10998571D01*
X19516905Y-10979524D01*
X19526429Y-10970000D01*
X19545476Y-10960476D01*
X19697857Y-11141429D02*
X19707381Y-11150952D01*
X19697857Y-11160476D01*
X19688333Y-11150952D01*
X19697857Y-11141429D01*
X19697857Y-11160476D01*
X19831190Y-10960476D02*
X19850238Y-10960476D01*
X19869286Y-10970000D01*
X19878810Y-10979524D01*
X19888333Y-10998571D01*
X19897857Y-11036667D01*
X19897857Y-11084286D01*
X19888333Y-11122381D01*
X19878810Y-11141429D01*
X19869286Y-11150952D01*
X19850238Y-11160476D01*
X19831190Y-11160476D01*
X19812143Y-11150952D01*
X19802619Y-11141429D01*
X19793095Y-11122381D01*
X19783571Y-11084286D01*
X19783571Y-11036667D01*
X19793095Y-10998571D01*
X19802619Y-10979524D01*
X19812143Y-10970000D01*
X19831190Y-10960476D01*
X20088333Y-11160476D02*
X19974048Y-11160476D01*
X20031190Y-11160476D02*
X20031190Y-10960476D01*
X20012143Y-10989048D01*
X19993095Y-11008095D01*
X19974048Y-11017619D01*
X20269286Y-10960476D02*
X20174048Y-10960476D01*
X20164524Y-11055714D01*
X20174048Y-11046190D01*
X20193095Y-11036667D01*
X20240714Y-11036667D01*
X20259762Y-11046190D01*
X20269286Y-11055714D01*
X20278810Y-11074762D01*
X20278810Y-11122381D01*
X20269286Y-11141429D01*
X20259762Y-11150952D01*
X20240714Y-11160476D01*
X20193095Y-11160476D01*
X20174048Y-11150952D01*
X20164524Y-11141429D01*
X20345476Y-10960476D02*
X20478810Y-10960476D01*
X20393095Y-11160476D01*
X20545476Y-10960476D02*
X20545476Y-10998571D01*
X20621667Y-10960476D02*
X20621667Y-10998571D01*
X20916905Y-11236667D02*
X20907381Y-11227143D01*
X20888333Y-11198571D01*
X20878810Y-11179524D01*
X20869286Y-11150952D01*
X20859762Y-11103333D01*
X20859762Y-11065238D01*
X20869286Y-11017619D01*
X20878810Y-10989048D01*
X20888333Y-10970000D01*
X20907381Y-10941429D01*
X20916905Y-10931905D01*
X21097857Y-11160476D02*
X20983571Y-11160476D01*
X21040714Y-11160476D02*
X21040714Y-10960476D01*
X21021667Y-10989048D01*
X21002619Y-11008095D01*
X20983571Y-11017619D01*
X21164524Y-10960476D02*
X21297857Y-10960476D01*
X21212143Y-11160476D01*
X21526429Y-11160476D02*
X21526429Y-10960476D01*
X21612143Y-11160476D02*
X21612143Y-11055714D01*
X21602619Y-11036667D01*
X21583571Y-11027143D01*
X21555000Y-11027143D01*
X21535952Y-11036667D01*
X21526429Y-11046190D01*
X21735952Y-11160476D02*
X21716905Y-11150952D01*
X21707381Y-11141429D01*
X21697857Y-11122381D01*
X21697857Y-11065238D01*
X21707381Y-11046190D01*
X21716905Y-11036667D01*
X21735952Y-11027143D01*
X21764524Y-11027143D01*
X21783571Y-11036667D01*
X21793095Y-11046190D01*
X21802619Y-11065238D01*
X21802619Y-11122381D01*
X21793095Y-11141429D01*
X21783571Y-11150952D01*
X21764524Y-11160476D01*
X21735952Y-11160476D01*
X21916905Y-11160476D02*
X21897857Y-11150952D01*
X21888333Y-11131905D01*
X21888333Y-10960476D01*
X22069286Y-11150952D02*
X22050238Y-11160476D01*
X22012143Y-11160476D01*
X21993095Y-11150952D01*
X21983571Y-11131905D01*
X21983571Y-11055714D01*
X21993095Y-11036667D01*
X22012143Y-11027143D01*
X22050238Y-11027143D01*
X22069286Y-11036667D01*
X22078810Y-11055714D01*
X22078810Y-11074762D01*
X21983571Y-11093810D01*
X22155000Y-11150952D02*
X22174048Y-11160476D01*
X22212143Y-11160476D01*
X22231190Y-11150952D01*
X22240714Y-11131905D01*
X22240714Y-11122381D01*
X22231190Y-11103333D01*
X22212143Y-11093810D01*
X22183571Y-11093810D01*
X22164524Y-11084286D01*
X22155000Y-11065238D01*
X22155000Y-11055714D01*
X22164524Y-11036667D01*
X22183571Y-11027143D01*
X22212143Y-11027143D01*
X22231190Y-11036667D01*
X22307381Y-11236667D02*
X22316905Y-11227143D01*
X22335952Y-11198571D01*
X22345476Y-11179524D01*
X22355000Y-11150952D01*
X22364524Y-11103333D01*
X22364524Y-11065238D01*
X22355000Y-11017619D01*
X22345476Y-10989048D01*
X22335952Y-10970000D01*
X22316905Y-10941429D01*
X22307381Y-10931905D01*
D13*
X17345000Y-11334000D02*
G75*
G03*
X17345000Y-11334000I-22500J0D01*
G01*
D11*
X17640714Y-11224476D02*
X17659762Y-11224476D01*
X17678810Y-11234000D01*
X17688333Y-11243524D01*
X17697857Y-11262571D01*
X17707381Y-11300667D01*
X17707381Y-11348286D01*
X17697857Y-11386381D01*
X17688333Y-11405428D01*
X17678810Y-11414952D01*
X17659762Y-11424476D01*
X17640714Y-11424476D01*
X17621667Y-11414952D01*
X17612143Y-11405428D01*
X17602619Y-11386381D01*
X17593095Y-11348286D01*
X17593095Y-11300667D01*
X17602619Y-11262571D01*
X17612143Y-11243524D01*
X17621667Y-11234000D01*
X17640714Y-11224476D01*
X17793095Y-11405428D02*
X17802619Y-11414952D01*
X17793095Y-11424476D01*
X17783571Y-11414952D01*
X17793095Y-11405428D01*
X17793095Y-11424476D01*
X17974048Y-11291143D02*
X17974048Y-11424476D01*
X17926429Y-11214952D02*
X17878810Y-11357809D01*
X18002619Y-11357809D01*
X18174048Y-11224476D02*
X18078810Y-11224476D01*
X18069286Y-11319714D01*
X18078810Y-11310190D01*
X18097857Y-11300667D01*
X18145476Y-11300667D01*
X18164524Y-11310190D01*
X18174048Y-11319714D01*
X18183571Y-11338762D01*
X18183571Y-11386381D01*
X18174048Y-11405428D01*
X18164524Y-11414952D01*
X18145476Y-11424476D01*
X18097857Y-11424476D01*
X18078810Y-11414952D01*
X18069286Y-11405428D01*
X18307381Y-11224476D02*
X18326429Y-11224476D01*
X18345476Y-11234000D01*
X18355000Y-11243524D01*
X18364524Y-11262571D01*
X18374048Y-11300667D01*
X18374048Y-11348286D01*
X18364524Y-11386381D01*
X18355000Y-11405428D01*
X18345476Y-11414952D01*
X18326429Y-11424476D01*
X18307381Y-11424476D01*
X18288333Y-11414952D01*
X18278810Y-11405428D01*
X18269286Y-11386381D01*
X18259762Y-11348286D01*
X18259762Y-11300667D01*
X18269286Y-11262571D01*
X18278810Y-11243524D01*
X18288333Y-11234000D01*
X18307381Y-11224476D01*
X18459762Y-11424476D02*
X18459762Y-11291143D01*
X18459762Y-11310190D02*
X18469286Y-11300667D01*
X18488333Y-11291143D01*
X18516905Y-11291143D01*
X18535952Y-11300667D01*
X18545476Y-11319714D01*
X18545476Y-11424476D01*
X18545476Y-11319714D02*
X18555000Y-11300667D01*
X18574048Y-11291143D01*
X18602619Y-11291143D01*
X18621667Y-11300667D01*
X18631190Y-11319714D01*
X18631190Y-11424476D01*
X18726429Y-11424476D02*
X18726429Y-11291143D01*
X18726429Y-11310190D02*
X18735952Y-11300667D01*
X18755000Y-11291143D01*
X18783571Y-11291143D01*
X18802619Y-11300667D01*
X18812143Y-11319714D01*
X18812143Y-11424476D01*
X18812143Y-11319714D02*
X18821667Y-11300667D01*
X18840714Y-11291143D01*
X18869286Y-11291143D01*
X18888333Y-11300667D01*
X18897857Y-11319714D01*
X18897857Y-11424476D01*
X19288333Y-11214952D02*
X19116905Y-11472095D01*
X19545476Y-11224476D02*
X19564524Y-11224476D01*
X19583571Y-11234000D01*
X19593095Y-11243524D01*
X19602619Y-11262571D01*
X19612143Y-11300667D01*
X19612143Y-11348286D01*
X19602619Y-11386381D01*
X19593095Y-11405428D01*
X19583571Y-11414952D01*
X19564524Y-11424476D01*
X19545476Y-11424476D01*
X19526429Y-11414952D01*
X19516905Y-11405428D01*
X19507381Y-11386381D01*
X19497857Y-11348286D01*
X19497857Y-11300667D01*
X19507381Y-11262571D01*
X19516905Y-11243524D01*
X19526429Y-11234000D01*
X19545476Y-11224476D01*
X19697857Y-11405428D02*
X19707381Y-11414952D01*
X19697857Y-11424476D01*
X19688333Y-11414952D01*
X19697857Y-11405428D01*
X19697857Y-11424476D01*
X19831190Y-11224476D02*
X19850238Y-11224476D01*
X19869286Y-11234000D01*
X19878810Y-11243524D01*
X19888333Y-11262571D01*
X19897857Y-11300667D01*
X19897857Y-11348286D01*
X19888333Y-11386381D01*
X19878810Y-11405428D01*
X19869286Y-11414952D01*
X19850238Y-11424476D01*
X19831190Y-11424476D01*
X19812143Y-11414952D01*
X19802619Y-11405428D01*
X19793095Y-11386381D01*
X19783571Y-11348286D01*
X19783571Y-11300667D01*
X19793095Y-11262571D01*
X19802619Y-11243524D01*
X19812143Y-11234000D01*
X19831190Y-11224476D01*
X20088333Y-11424476D02*
X19974048Y-11424476D01*
X20031190Y-11424476D02*
X20031190Y-11224476D01*
X20012143Y-11253048D01*
X19993095Y-11272095D01*
X19974048Y-11281619D01*
X20155000Y-11224476D02*
X20288333Y-11224476D01*
X20202619Y-11424476D01*
X20345476Y-11224476D02*
X20478810Y-11224476D01*
X20393095Y-11424476D01*
X20545476Y-11224476D02*
X20545476Y-11262571D01*
X20621667Y-11224476D02*
X20621667Y-11262571D01*
X20916905Y-11500667D02*
X20907381Y-11491143D01*
X20888333Y-11462571D01*
X20878810Y-11443524D01*
X20869286Y-11414952D01*
X20859762Y-11367333D01*
X20859762Y-11329238D01*
X20869286Y-11281619D01*
X20878810Y-11253048D01*
X20888333Y-11234000D01*
X20907381Y-11205428D01*
X20916905Y-11195905D01*
X21031190Y-11224476D02*
X21050238Y-11224476D01*
X21069286Y-11234000D01*
X21078810Y-11243524D01*
X21088333Y-11262571D01*
X21097857Y-11300667D01*
X21097857Y-11348286D01*
X21088333Y-11386381D01*
X21078810Y-11405428D01*
X21069286Y-11414952D01*
X21050238Y-11424476D01*
X21031190Y-11424476D01*
X21012143Y-11414952D01*
X21002619Y-11405428D01*
X20993095Y-11386381D01*
X20983571Y-11348286D01*
X20983571Y-11300667D01*
X20993095Y-11262571D01*
X21002619Y-11243524D01*
X21012143Y-11234000D01*
X21031190Y-11224476D01*
X21335952Y-11424476D02*
X21335952Y-11224476D01*
X21421667Y-11424476D02*
X21421667Y-11319714D01*
X21412143Y-11300667D01*
X21393095Y-11291143D01*
X21364524Y-11291143D01*
X21345476Y-11300667D01*
X21335952Y-11310190D01*
X21545476Y-11424476D02*
X21526429Y-11414952D01*
X21516905Y-11405428D01*
X21507381Y-11386381D01*
X21507381Y-11329238D01*
X21516905Y-11310190D01*
X21526429Y-11300667D01*
X21545476Y-11291143D01*
X21574048Y-11291143D01*
X21593095Y-11300667D01*
X21602619Y-11310190D01*
X21612143Y-11329238D01*
X21612143Y-11386381D01*
X21602619Y-11405428D01*
X21593095Y-11414952D01*
X21574048Y-11424476D01*
X21545476Y-11424476D01*
X21726429Y-11424476D02*
X21707381Y-11414952D01*
X21697857Y-11395905D01*
X21697857Y-11224476D01*
X21878810Y-11414952D02*
X21859762Y-11424476D01*
X21821667Y-11424476D01*
X21802619Y-11414952D01*
X21793095Y-11395905D01*
X21793095Y-11319714D01*
X21802619Y-11300667D01*
X21821667Y-11291143D01*
X21859762Y-11291143D01*
X21878810Y-11300667D01*
X21888333Y-11319714D01*
X21888333Y-11338762D01*
X21793095Y-11357809D01*
X21964524Y-11414952D02*
X21983571Y-11424476D01*
X22021667Y-11424476D01*
X22040714Y-11414952D01*
X22050238Y-11395905D01*
X22050238Y-11386381D01*
X22040714Y-11367333D01*
X22021667Y-11357809D01*
X21993095Y-11357809D01*
X21974048Y-11348286D01*
X21964524Y-11329238D01*
X21964524Y-11319714D01*
X21974048Y-11300667D01*
X21993095Y-11291143D01*
X22021667Y-11291143D01*
X22040714Y-11300667D01*
X22288333Y-11348286D02*
X22440714Y-11348286D01*
X22364524Y-11424476D02*
X22364524Y-11272095D01*
X22678809Y-11243524D02*
X22688333Y-11234000D01*
X22707381Y-11224476D01*
X22755000Y-11224476D01*
X22774048Y-11234000D01*
X22783571Y-11243524D01*
X22793095Y-11262571D01*
X22793095Y-11281619D01*
X22783571Y-11310190D01*
X22669286Y-11424476D01*
X22793095Y-11424476D01*
X23021667Y-11414952D02*
X23040714Y-11424476D01*
X23078809Y-11424476D01*
X23097857Y-11414952D01*
X23107381Y-11395905D01*
X23107381Y-11386381D01*
X23097857Y-11367333D01*
X23078809Y-11357809D01*
X23050238Y-11357809D01*
X23031190Y-11348286D01*
X23021667Y-11329238D01*
X23021667Y-11319714D01*
X23031190Y-11300667D01*
X23050238Y-11291143D01*
X23078809Y-11291143D01*
X23097857Y-11300667D01*
X23221667Y-11424476D02*
X23202619Y-11414952D01*
X23193095Y-11395905D01*
X23193095Y-11224476D01*
X23326428Y-11424476D02*
X23307381Y-11414952D01*
X23297857Y-11405428D01*
X23288333Y-11386381D01*
X23288333Y-11329238D01*
X23297857Y-11310190D01*
X23307381Y-11300667D01*
X23326428Y-11291143D01*
X23355000Y-11291143D01*
X23374048Y-11300667D01*
X23383571Y-11310190D01*
X23393095Y-11329238D01*
X23393095Y-11386381D01*
X23383571Y-11405428D01*
X23374048Y-11414952D01*
X23355000Y-11424476D01*
X23326428Y-11424476D01*
X23450238Y-11291143D02*
X23526428Y-11291143D01*
X23478809Y-11224476D02*
X23478809Y-11395905D01*
X23488333Y-11414952D01*
X23507381Y-11424476D01*
X23526428Y-11424476D01*
X23583571Y-11414952D02*
X23602619Y-11424476D01*
X23640714Y-11424476D01*
X23659762Y-11414952D01*
X23669286Y-11395905D01*
X23669286Y-11386381D01*
X23659762Y-11367333D01*
X23640714Y-11357809D01*
X23612143Y-11357809D01*
X23593095Y-11348286D01*
X23583571Y-11329238D01*
X23583571Y-11319714D01*
X23593095Y-11300667D01*
X23612143Y-11291143D01*
X23640714Y-11291143D01*
X23659762Y-11300667D01*
X23735952Y-11500667D02*
X23745476Y-11491143D01*
X23764524Y-11462571D01*
X23774048Y-11443524D01*
X23783571Y-11414952D01*
X23793095Y-11367333D01*
X23793095Y-11329238D01*
X23783571Y-11281619D01*
X23774048Y-11253048D01*
X23764524Y-11234000D01*
X23745476Y-11205428D01*
X23735952Y-11195905D01*
M02*
